# xmcd CD database file
#
# Track frame offsets:
#	150
#	4235
#	16332
#	29000
#	36960
#	45982
#	51932
#	59037
#	69502
#	76487
#	82940
#	90927
#	99842
#	120380
#	147102
#
# Disc length: 2426 seconds
#
# Revision: 0
# Processed by: cddbd v1.4PL0 Copyright (c) Steve Scherf et al.
# Submitted via: CDex 1.40Release
#
DISCID=b609780f
DTITLE=Oliver Gronewald - Life!
DYEAR=2000
DGENRE=Blues
TTITLE0=Blues Workout
TTITLE1=Good New's, the Chariot's coming
TTITLE2=Deep River
TTITLE3=On The Sunny Side of the Street
TTITLE4=St. James Infimary Blues
TTITLE5=Ich lobe meinen Gott von ganzem Herzen
TTITLE6=Ich lobe meinen Gott von ganzem Herzen
TTITLE7=Die ganze Welt hast Du uns überlassen
TTITLE8=Gott gab uns Atem
TTITLE9=Verleih und Frieden gnädiglich
TTITLE10=He's got the Whole World
TTITLE11=Go, Tell it on the Mountain
TTITLE12=Isfahan
TTITLE13=K and K
TTITLE14=The Things We did last Summer
EXTD=YEAR: 2000 ID3G: 0
EXTT0=
EXTT1=
EXTT2=
EXTT3=
EXTT4=
EXTT5=
EXTT6=
EXTT7=
EXTT8=
EXTT9=
EXTT10=
EXTT11=
EXTT12=
EXTT13=
EXTT14=
PLAYORDER=
